<?xml version="1.0" encoding="UTF-8"?>
<svg id="Layer_2" xmlns="http://www.w3.org/2000/svg" viewBox="0 0 264.75 338.75399">
  <defs>
    <style>
      .cls-1 {
        stroke-linejoin: round;
        stroke-width: .5px;
      }

      .cls-1, .cls-2, .cls-3 {
        fill: none;
        stroke: #231f20;
      }

      .cls-1, .cls-3 {
        stroke-linecap: square;
      }

      .cls-2 {
        stroke-linecap: round;
      }

      .cls-2, .cls-3 {
        stroke-miterlimit: 10;
        stroke-width: 4px;
      }
    </style>
  </defs>
  <g id="Layer_1-2" data-name="Layer_1">
    <line class="cls-3" x1="114.87501" y1="41.37506" x2="44.87501" y2="41.37512"/>
    <path class="cls-3" d="M219.875,19.4998H44.875h175Z"/>
    <g>
      <path class="cls-2" d="M2,40.01675v-18.84433c0-.97759,0,18.88285,0,18.84433h0Z"/>
      <path class="cls-2" d="M23.66281,2.2617c-.05506,1.47685-6.99211,19.29332-21.21222,18.87104"/>
      <path class="cls-2" d="M23.66278,2.2617c.05506,1.47685,6.99211,17.66058,21.21222,17.2383"/>
      <path class="cls-2" d="M2,21.11995v18.84433c0,.97759,0-18.88285,0-18.84433Z"/>
      <path class="cls-2" d="M23.66281,58.875c-.05506-1.47685-6.99211-19.29332-21.21222-18.87104"/>
      <path class="cls-2" d="M23.66278,58.875c.05506-1.47685,6.99211-17.92227,21.21222-17.5"/>
    </g>
    <g>
      <path class="cls-2" d="M262.75,20.85825v18.84433c0,.97759,0-18.88285,0-18.84433h0Z"/>
      <path class="cls-2" d="M241.08719,58.6133c.05506-1.47685,6.99211-19.29332,21.21222-18.87104"/>
      <path class="cls-2" d="M241.08722,58.6133c-.05506-1.47685-6.99211-17.66058-21.21222-17.2383"/>
      <path class="cls-2" d="M262.75,39.75505v-18.84433c0-.97759,0,18.88285,0,18.84433Z"/>
      <path class="cls-2" d="M241.08719,2c.05506,1.47685,6.99211,19.29332,21.21222,18.87104"/>
      <path class="cls-2" d="M241.08722,2c-.05506,1.47685-6.99211,17.92227-21.21222,17.5"/>
    </g>
    <path class="cls-2" d="M149.875,317l7.48417.05692c-.31674,13.20439,13.04713,19.64594,14.15489,19.69707"/>
    <path class="cls-2" d="M114.875,317h-7.7201c.31674,13.20439-13.04714,19.64594-14.1549,19.69706"/>
    <line class="cls-3" x1="95.06955" y1="336.69706" x2="169.44455" y2="336.69706"/>
    <path class="cls-2" d="M219.87575,41.37506h-70s70,0,70,0Z"/>
    <path class="cls-3" d="M114.875,317V41.375v275.625Z"/>
    <g>
      <path class="cls-2" d="M149.87491,286.375s-.00012,29.85937-34.99991,30.625"/>
      <path class="cls-2" d="M114.87501,317s.00003-29.85937,34.99982-30.625"/>
    </g>
    <g>
      <path class="cls-2" d="M149.87491,251.375s-.00012,29.85937-34.99991,30.625"/>
      <path class="cls-2" d="M114.87501,282s.00003-29.85937,34.99982-30.625"/>
    </g>
    <g>
      <path class="cls-2" d="M149.875,216.375s-.00012,29.85937-34.99991,30.625"/>
      <path class="cls-2" d="M114.8751,247s.00003-29.85937,34.99982-30.625"/>
    </g>
    <g>
      <path class="cls-2" d="M149.875,181.375s-.00012,29.85937-34.99991,30.625"/>
      <path class="cls-2" d="M114.8751,212s.00003-29.85937,34.99982-30.625"/>
    </g>
    <g>
      <path class="cls-2" d="M149.875,146.375s-.00012,29.85937-34.99991,30.625"/>
      <path class="cls-2" d="M114.8751,177s.00003-29.85937,34.99982-30.625"/>
    </g>
    <g>
      <path class="cls-2" d="M149.875,111.375s-.00012,29.85937-34.99991,30.625"/>
      <path class="cls-2" d="M114.8751,142s.00003-29.85937,34.99982-30.625"/>
    </g>
    <g>
      <path class="cls-2" d="M149.87491,76.375s-.00012,29.85937-34.99991,30.625"/>
      <path class="cls-2" d="M114.87501,107s.00003-29.85937,34.99982-30.625"/>
    </g>
    <g>
      <path class="cls-2" d="M149.875,41.375s-.00012,29.85937-34.99991,30.625"/>
      <path class="cls-2" d="M114.8751,72s.00003-29.85937,34.99982-30.625"/>
    </g>
    <path class="cls-3" d="M149.875,317V41.375v275.625Z"/>
    <g>
      <path class="cls-2" d="M114.87509,286.375s.00012,29.85937,34.99991,30.625"/>
      <path class="cls-2" d="M149.87499,317s-.00003-29.85937-34.99982-30.625"/>
    </g>
    <g>
      <path class="cls-2" d="M114.87509,251.375s.00012,29.85937,34.99991,30.625"/>
      <path class="cls-2" d="M149.87499,282s-.00003-29.85937-34.99982-30.625"/>
    </g>
    <g>
      <path class="cls-2" d="M114.875,216.375s.00012,29.85937,34.99991,30.625"/>
      <path class="cls-2" d="M149.8749,247s-.00003-29.85937-34.99982-30.625"/>
    </g>
    <g>
      <path class="cls-2" d="M114.875,181.375s.00012,29.85937,34.99991,30.625"/>
      <path class="cls-2" d="M149.8749,212s-.00003-29.85937-34.99982-30.625"/>
    </g>
    <g>
      <path class="cls-2" d="M114.875,146.375s.00012,29.85937,34.99991,30.625"/>
      <path class="cls-2" d="M149.8749,177s-.00003-29.85937-34.99982-30.625"/>
    </g>
    <g>
      <path class="cls-2" d="M114.875,111.375s.00012,29.85937,34.99991,30.625"/>
      <path class="cls-2" d="M149.8749,142s-.00003-29.85937-34.99982-30.625"/>
    </g>
    <g>
      <path class="cls-2" d="M114.87509,76.375s.00012,29.85937,34.99991,30.625"/>
      <path class="cls-2" d="M149.87499,107s-.00003-29.85937-34.99982-30.625"/>
    </g>
    <g>
      <path class="cls-2" d="M114.875,41.375s.00012,29.85937,34.99991,30.625"/>
      <path class="cls-2" d="M149.8749,72s-.00003-29.85937-34.99982-30.625"/>
    </g>
    <circle class="cls-2" cx="25.1875" cy="30.4375" r="15.3125"/>
    <circle class="cls-2" cx="239.5625" cy="30.4375" r="15.3125"/>
    <path class="cls-2" d="M51.4375,41.375c-6.04061,0-10.9375-4.89689-10.9375-10.9375s4.89689-10.9375,10.9375-10.9375"/>
    <path class="cls-2" d="M95.1875,19.5c6.04061,0,10.9375,4.89689,10.9375,10.9375s-4.89689,10.9375-10.9375,10.9375"/>
    <path class="cls-2" d="M132.375,41.375c-6.04061,0-26.25-4.89689-26.25-10.9375s20.20939-10.9375,26.25-10.9375"/>
    <path class="cls-2" d="M132.375,19.5c6.04061,0,26.25,4.89689,26.25,10.9375s-20.20939,10.9375-26.25,10.9375"/>
    <path class="cls-2" d="M169.5625,41.375c-6.04061,0-10.9375-4.89689-10.9375-10.9375s4.89689-10.9375,10.9375-10.9375"/>
    <path class="cls-2" d="M213.3125,19.5c6.04061,0,10.9375,4.89689,10.9375,10.9375s-4.89689,10.9375-10.9375,10.9375"/>
    <circle class="cls-2" cx="132.375" cy="325.75" r="8.75"/>
    <path class="cls-2" d="M149.875,317c4.83249,0,8.75,3.91751,8.75,8.75s-3.91751,8.75-8.75,8.75"/>
    <path class="cls-2" d="M114.875,334.5c-4.83249,0-8.75-3.91751-8.75-8.75s3.91751-8.75,8.75-8.75"/>
    <path class="cls-2" d="M123.625,334.5c-4.83249,0-8.75-3.91751-8.75-8.75s3.91751-8.75,8.75-8.75"/>
    <path class="cls-2" d="M141.125,317c4.83249,0,8.75,3.91751,8.75,8.75s-3.91751,8.75-8.75,8.75"/>
    <g>
      <path class="cls-1" d="M137.4772,322.0786c-5.63574,0-10.2044,7.3428-10.2044,7.3428,0-4.05532,4.56867-7.3428,10.2044-7.3428h0Z"/>
      <path class="cls-1" d="M134.87764,320.10832c-4.88069,2.70355-5.01062,11.25426-5.01062,11.25426-2.1134-3.51201.12993-8.55071,5.01062-11.25426h0Z"/>
      <path class="cls-1" d="M131.61212,319.67493c-2.81787,4.68268,1.52575,12.15014,1.52575,12.15014-3.66052-2.02766-4.34362-7.46747-1.52575-12.15014h0Z"/>
      <path class="cls-1" d="M128.54835,320.8548c0,5.40709,7.6533,9.79041,7.6533,9.79041-4.2268,0-7.6533-4.38332-7.6533-9.79041h0Z"/>
      <path class="cls-1" d="M126.50992,323.34633c2.81787,4.68268,11.73015,4.80734,11.73015,4.80734-3.66052,2.02766-8.91229-.12466-11.73015-4.80734h0Z"/>
      <path class="cls-1" d="M126.04304,326.48193c4.88069,2.70355,12.66392-1.46385,12.66392-1.46385-2.1134,3.51201-7.78323,4.1674-12.66392,1.46385h0Z"/>
      <path class="cls-1" d="M127.2728,329.4214c5.63574,0,10.2044-7.3428,10.2044-7.3428,0,4.05532-4.56867,7.3428-10.2044,7.3428h0Z"/>
      <path class="cls-1" d="M129.86969,331.37713c4.88069-2.70355,5.01062-11.25426,5.01062-11.25426,2.1134,3.51201-.12993,8.55071-5.01062,11.25426h0Z"/>
      <path class="cls-1" d="M137.4772,322.0786c-5.63574,0-10.2044,7.3428-10.2044,7.3428,0-4.05532,4.56867-7.3428,10.2044-7.3428h0Z"/>
      <path class="cls-1" d="M137.4772,322.0786c-5.63574,0-10.2044,7.3428-10.2044,7.3428,0-4.05532,4.56867-7.3428,10.2044-7.3428h0Z"/>
      <path class="cls-1" d="M129.86969,331.37713c4.88069-2.70355,5.01062-11.25426,5.01062-11.25426,2.1134,3.51201-.12993,8.55071-5.01062,11.25426h0Z"/>
      <path class="cls-1" d="M133.13788,331.82507c2.81787-4.68268-1.52575-12.15014-1.52575-12.15014,3.66052,2.02766,4.34362,7.46747,1.52575,12.15014h0Z"/>
      <path class="cls-1" d="M136.20165,330.6452c0-5.40709-7.6533-9.79041-7.6533-9.79041,4.2268,0,7.6533,4.38332,7.6533,9.79041h0Z"/>
      <path class="cls-1" d="M138.24008,328.15367c-2.81787-4.68268-11.73015-4.80734-11.73015-4.80734,3.66052-2.02766,8.91229.12466,11.73015,4.80734h0Z"/>
      <path class="cls-1" d="M138.70696,325.01807c-4.88069-2.70355-12.66392,1.46385-12.66392,1.46385,2.1134-3.51201,7.78323-4.1674,12.66392-1.46385h0Z"/>
    </g>
  </g>
</svg>