<?xml version="1.0" encoding="UTF-8"?>
<svg id="Layer_1" data-name="Layer 1" xmlns="http://www.w3.org/2000/svg" viewBox="0 0 245.47332 350">
  <defs>
    <style>
      .cls-1 {
        fill: none;
        stroke: #231f20;
        stroke-miterlimit: 10;
        stroke-width: 4px;
      }
    </style>
  </defs>
  <path class="cls-1" d="M226.52771,47.72726v254.54538s0-254.54538,0-254.54538Z"/>
  <g>
    <path class="cls-1" d="M226.54056,344.69697c-5.08218,0-13.423,0-18.84433,0-.97759,0,18.88285,0,18.84433,0Z"/>
    <path class="cls-1" d="M188.78551,323.48486c1.47685.05506,19.29332,6.99211,18.87104,21.21222"/>
  </g>
  <path class="cls-1" d="M245.39882,323.48489c-1.47685-.05506-19.29332-6.99211-18.87104-21.21222"/>
  <g>
    <path class="cls-1" d="M207.64377,344.69697c5.08218,0,13.423,0,18.84433,0,.97759,0-18.88285,0-18.84433,0Z"/>
    <path class="cls-1" d="M245.39882,323.48486c-1.47685.05506-19.29332,6.99211-18.87104,21.21222"/>
  </g>
  <g>
    <path class="cls-1" d="M226.54056,5.30306h-18.84433c-.97759,0,18.88285,0,18.84433,0h0Z"/>
    <path class="cls-1" d="M188.78551,26.51517c1.47685-.05506,19.29332-6.99211,18.87104-21.21222"/>
  </g>
  <path class="cls-1" d="M188.78551,26.51514c1.47685.05506,19.29332,6.99211,18.87104,21.21222"/>
  <g>
    <path class="cls-1" d="M207.64377,5.30306h18.84433c.97759,0-18.88285,0-18.84433,0Z"/>
    <path class="cls-1" d="M245.39882,26.51517c-1.47685-.05506-19.29332-6.99211-18.87104-21.21222"/>
  </g>
  <path class="cls-1" d="M245.39882,26.51514c-1.47685.05506-19.29332,6.99211-18.87104,21.21222"/>
  <g>
    <path class="cls-1" d="M207.65657,205.30295c-3.81207,0-10.0684,0-14.13486,0-.73328,0,14.16375,0,14.13486,0Z"/>
    <path class="cls-1" d="M188.78551,323.48489c1.47685-.05112,19.29332-6.49267,18.87104-19.69705l.00002-98.48488-14.16462.0001c.31674-13.20438-13.04713-19.64593-14.15489-19.69705"/>
  </g>
  <g>
    <path class="cls-1" d="M207.64924,144.69692c-3.81207,0-10.0684,0-14.13486,0-.73328,0,14.16375,0,14.13486,0Z"/>
    <path class="cls-1" d="M188.77819,26.5149c1.47685.05112,19.29332,6.49268,18.87104,19.69707l.00002,98.48496-14.16462-.0001c.31674,13.20439-13.04713,19.64594-14.15489,19.69707"/>
  </g>
  <path class="cls-1" d="M18.94561,47.72726v254.54538s0-254.54538,0-254.54538Z"/>
  <g>
    <path class="cls-1" d="M18.93276,344.69697c5.08218,0,13.423,0,18.84433,0,.97759,0-18.88285,0-18.84433,0Z"/>
    <path class="cls-1" d="M56.68781,323.48486c-1.47685.05506-19.29332,6.99211-18.87104,21.21222"/>
  </g>
  <path class="cls-1" d="M.07451,323.48489c1.47685-.05506,19.29332-6.99211,18.87104-21.21222"/>
  <g>
    <path class="cls-1" d="M37.82956,344.69697c-5.08218,0-13.423,0-18.84433,0-.97759,0,18.88285,0,18.84433,0Z"/>
    <path class="cls-1" d="M.07451,323.48486c1.47685.05506,19.29332,6.99211,18.87104,21.21222"/>
  </g>
  <g>
    <path class="cls-1" d="M18.93276,5.30306h18.84433c.97759,0-18.88285,0-18.84433,0h0Z"/>
    <path class="cls-1" d="M56.68781,26.51517c-1.47685-.05506-19.29332-6.99211-18.87104-21.21222"/>
  </g>
  <path class="cls-1" d="M56.68781,26.51514c-1.47685.05506-19.29332,6.99211-18.87104,21.21222"/>
  <g>
    <path class="cls-1" d="M37.82956,5.30306h-18.84433c-.97759,0,18.88285,0,18.84433,0Z"/>
    <path class="cls-1" d="M.07451,26.51517c1.47685-.05506,19.29332-6.99211,18.87104-21.21222"/>
  </g>
  <path class="cls-1" d="M.07451,26.51514c1.47685.05506,19.29332,6.99211,18.87104,21.21222"/>
  <path class="cls-1" d="M37.81674,205.30296c3.81207,0,10.0684,0,14.13486,0,.73328,0-14.16375,0-14.13486,0Z"/>
  <path class="cls-1" d="M56.6878,323.48488c-1.47685-.05112-19.29332-6.49267-18.87104-19.69705l-.00002-98.48488,14.16462.0001c-.31674-13.20438,13.04713-19.64593,14.15489-19.69705"/>
  <path class="cls-1" d="M179.34993,185.60596h-113.22664,113.22664Z"/>
  <g>
    <path class="cls-1" d="M37.82408,144.69692c3.81207,0,10.0684,0,14.13486,0,.73328,0-14.16375,0-14.13486,0Z"/>
    <path class="cls-1" d="M56.69514,26.51489c-1.47685.05112-19.29332,6.49268-18.87104,19.69707l-.00002,98.48496,14.16462-.0001c-.31674,13.20439,13.04713,19.64594,14.15489,19.69707"/>
  </g>
  <path class="cls-1" d="M179.34996,164.39389h-113.22664,113.22664Z"/>
</svg>