<?xml version="1.0" encoding="UTF-8"?>
<svg id="Layer_1" data-name="Layer 1" xmlns="http://www.w3.org/2000/svg" viewBox="0 0 352.7580043731 352.7569911213">
  <defs>
    <style>
      .cls-1 {
        fill: #fff;
      }

      .cls-1, .cls-2 {
        stroke: #231f20;
        stroke-miterlimit: 10;
        stroke-width: 3px;
      }

      .cls-2 {
        fill: none;
      }
    </style>
  </defs>
  <g>
    <path class="cls-1" d="M2.3940601394,2.403648329c104.7767854142,104.7767854142,238.7868238449,238.7868238449,344.7449635399,344.7449635399,3.2717017585,3.2717017585,4.2798999837,4.2798999837,2.8658700467,2.8658700467-1.1083778508-1.1083778508-3.7097639409-3.7097639409-7.8174400677-7.8174400677C242.8335397219,242.8431279115,103.8933792063,103.9029673959,2.4196184861,2.4292066757l-.0255583467-.0255583467Z"/>
    <path class="cls-1" d="M316.4567644729,37.0802314154c9.3320310781,83.8990189489,23.3390068833,210.2050501852,32.9968711163,297.1734762393.7291704634,6.5608366547,1.3376666727,12.0497265641,1.8008884099,16.1952215742.0355611572.3118075653-.2019069278-1.8370694996-.6886761397-6.2319413965-10.3422866047-93.3441214982-23.8224944192-214.4905983339-34.1132623328-307.1742151976l.0041789463.0374587806Z"/>
    <path class="cls-1" d="M71.9508189369,280.8061932885c66.2543482225-66.2543651185,162.5825655996-162.5825778157,226.6203104279-226.6203206204,6.491983571-6.4919829208,12.08428811-12.0842874343,16.6433623542-16.6433597642,1.0000325075-1.0000318588.3311914827-.3311901351-1.8997862873,1.8997883636-73.1826795936,73.182687674-168.5585925346,168.5586132132-241.4038269571,241.4038325305l.0399404623-.0399405093Z"/>
    <path class="cls-1" d="M246.3254341636,246.3881085433c-50.8282554713,10.1505389207-110.0659619772,22.0226109866-161.8643035927,32.402011601-13.536993117,2.7145233318-16.3713516983,3.2892434596-5.4501566579,1.108474969,52.4000696033-10.4774514926,117.316631901-23.4785578061,167.3588129558-33.5192922541l-.0443527052.0088056841Z"/>
    <path class="cls-1" d="M211.5449502272,141.9060808585c9.5613516157,28.6209454803,24.9260835817,74.7919792753,34.8521618851,104.5547463536.125922446.3771060341-.1199926003-.3614773637-.6850207718-2.0567588678-10.799035323-32.4047852061-23.3152322123-69.844853436-34.1582472087-102.4707770594l-.0088939045-.0272104263Z"/>
    <path class="cls-2" d="M176.3737073452,176.3832955348l35-35"/>
  </g>
  <g>
    <path class="cls-1" d="M2.4050847283,350.3519184447C107.1819960594,245.5750158739,241.1896159064,111.5674059997,347.1491008483,5.6079107083c3.2722596406-3.2722604111,4.2808752615-4.2808768342,2.8671349771-2.8671373411-1.1081504276,1.1081498055-3.7093882938,3.7093870563-7.8169943289,7.8169925025C242.8190792558,109.9379199116,103.881804941,248.8751968955,2.4306410209,350.3263621453l-.0255562926.0255562994Z"/>
    <path class="cls-1" d="M37.0605420628,36.3012507267C120.9644936656,26.9688490428,247.1514425445,12.9749480793,334.1010741896,3.3191340211c6.5888116154-.7322748394,12.1672976367-1.3507238705,16.3280783163-1.8156466685.312135982-.0355958195-1.8362692122.2018232625-6.2305160856.6885283061C250.855557222,12.5343729273,129.7067297791,26.0147522786,37.0230802296,36.3054299436l.0374618332-.0041792169Z"/>
    <path class="cls-1" d="M280.9663762229,280.9759644125C210.7089954368,210.7185836264,122.3094630846,122.3190512742,50.4378750625,50.4474632522c-4.1764680588-4.1764680588-7.4094761532-7.4094761532-9.6308310769-9.6308310769-6.1347449566-6.1347449566-4.3777432183-4.3777432183,1.7033186223,1.7033186223,73.4055347691,73.4055347691,165.2761084954,165.2761084954,238.4638240726,238.4638240726l-.0078104576-.0078104576Z"/>
    <path class="cls-1" d="M246.3718098267,106.3982192764c10.1460247308,50.8055202119,22.0053124288,109.9789585667,32.3724487753,161.7164693005,2.7211577365,13.57032208,3.3160781076,16.506036929,1.1780121445,5.798210756-10.4706049246-52.3668265382-23.5357188333-117.6029039046-33.5636432616-167.5810802654l.0131823417.066400209Z"/>
    <path class="cls-1" d="M141.9231272392,141.195113119c32.6102666798-10.9175227994,70.0666198821-23.367366363,102.4751435295-34.1599612431,1.6929682204-.5630814836,2.4302215227-.8078218609,2.0532680874-.6812698286-29.0386216443,9.6847077897-76.88168197,25.6466844937-104.5554341137,34.8504666035l.0270224968-.0092355319Z"/>
    <path class="cls-2" d="M176.3737073452,176.3832955348c-11.4714678879-11.4714678879-23.5034778024-23.5034778024-35-35"/>
  </g>
  <g>
    <path class="cls-1" d="M350.353429574,350.3630177637C248.8950560252,248.9046442148,110.0593843922,110.0689725818,10.7321780338,10.7417662234,6.6384807279,6.6480689175,4.0085960016,4.0181841912,2.8322696211,2.8418578108c-1.5096875268-1.5096875268-.6314659526-.6314659526,2.4861999315,2.4861999315,107.271884595,107.271884595,238.7031751443,238.7031751443,345.0618553518,345.0618553518l-.0268953303-.0268953303Z"/>
    <path class="cls-1" d="M36.2998704763,315.7113422138C26.8139049436,230.5682874383,13.0438798148,106.278447106,3.9123340243,24.0532605367,2.9979548083,15.815480973,2.2062583949,8.6827049494,1.563980443,2.8982628115c-.1426083862-1.2841430787-.0452767756-.4066084279.2765618296,2.4930924598,10.427796542,94.0205961206,24.1151565065,216.881286509,34.4636254048,310.3581000852l-.0042972011-.0381131428Z"/>
    <path class="cls-1" d="M280.8047257397,71.9522866217c-66.2445864639,66.2445693754-162.6427429417,162.6427306728-226.6197996007,226.6197894138-6.4920758398,6.492076491-12.0843826802,12.084383361-16.6436450134,16.6436476012-1.0002381138,1.0002387597-.3316956624.3316970028,1.898881619-1.8988795561,73.1817852794-73.1817774428,168.5593258393-168.5593052885,241.4045068815-241.4045012982l-.0399438864.0399438393Z"/>
    <path class="cls-1" d="M106.3886310868,106.3851983448c50.8055219427-10.1460163401,109.9789592104-22.0053109192,161.7164693012-32.3724526415,13.5703220793-2.7211602055,16.5060369283-3.3160829716,5.7982107552-1.1780181281-52.3668273793,10.4706038766-117.602905123,23.5357179364-167.5810802654,33.5636530615l.066400209-.0131822919Z"/>
    <path class="cls-1" d="M141.1855249294,210.8338749166c-10.9175228445-32.6102664533-23.3673669988-70.0666190064-34.1599612434-102.4751429202-.5630814833-1.6929684653-.8078218606-2.4302220476-.6812698282-2.0532688956,9.6847087657,29.0386212792,25.6466852947,76.8816816476,34.8504666035,104.5554343016l-.0092355319-.0270224858Z"/>
    <path class="cls-2" d="M176.3737073452,176.3832955348c-11.4714678879,11.4714678879-23.5034778024,23.5034778024-35,35"/>
  </g>
  <g>
    <path class="cls-1" d="M350.3533547862,2.403648329C245.5765754149,107.1804365195,111.5665433429,241.1904786144,5.6083996318,347.1486118714c-3.2717025292,3.271701756-4.2799015584,4.2798999811-2.865872414,2.8658700442,1.1083772277-1.1083778508,3.7097627018-3.7097639409,7.8174382395-7.8174400677C109.9138741121,242.8431250111,248.8540360566,103.902965809,350.3277964327,2.4292066757l.0255583535-.0255583467Z"/>
    <path class="cls-1" d="M315.7017575532,316.4571337637c-85.1430540247,9.4859812753-209.4328942048,23.255995953-291.6580827877,32.3875310706-8.2377792364.9143773595-15.3705547642,1.7060730995-21.154996765,2.3483470308-1.2841427946.1426070418-.4066078061.0452741684,2.4930934751-.276565569,94.0205937481-10.4278049785,216.8812865241-24.1151653548,310.3580992463-34.4636097786l-.0381131687.0042972462Z"/>
    <path class="cls-1" d="M71.942698432,71.9522866217l226.6197894155,226.6197894155,16.6436475996,16.6436475996c1.0002387596,1.0002387596.3316970026.3316970026-1.8988795563-1.8988795563L71.9027545927,71.9123427823l.0399438393.0399438393Z"/>
    <path class="cls-1" d="M106.3751678954,246.4120930252c-10.0992153867-50.4673456945-23.3460910212-116.5473976355-33.9512687006-169.5689746566-1.6987368883-8.4913664233-.9417457082-4.692970804,1.6608800735,8.3217817317,10.3658833108,51.8062777045,22.1923988192,110.7822693099,32.2824574935,161.2075708823l.0079311336.0396220426Z"/>
    <path class="cls-1" d="M210.8509220216,211.5545384169c-28.6209454803,9.5613516157-74.7919792753,24.9260835817-104.5547463536,34.8521618851-.3771060341.125922446.3614773637-.1199926003,2.0567588678-.6850207718,32.4047852061-10.799035323,69.844853436-23.3152322123,102.4707770594-34.1582472087l.0272104263-.0088939045Z"/>
    <path class="cls-2" d="M176.3737073452,176.3832955348c11.4975214036,11.4975214036,23.5276441179,23.5276441179,35,35l-35-35Z"/>
  </g>
</svg>