<?xml version="1.0" encoding="UTF-8"?>
<svg id="Layer_1" data-name="Layer 1" xmlns="http://www.w3.org/2000/svg" viewBox="0 0 284.983 284.655">
  <defs>
    <style>
      .cls-1 {
        fill: #231f20;
        stroke-width: 0px;
      }
    </style>
  </defs>
  <path class="cls-1" d="M39.019,14.275c-.785,1.68-1.707,3.286-2.776,4.801-.18.255-.931,1.572-.263.387-.217.386-.604.746-.892,1.082-.536.623-1.096,1.227-1.675,1.81-.667.671-1.362,1.316-2.08,1.933-.339.291-.709.694-1.101.909,1.163-.638-.163.116-.418.299-1.467,1.056-3.008,2.008-4.606,2.853-.86.455-1.739.864-2.624,1.268-.931.424.899-.353-.325.127-.398.156-.798.306-1.2.449-1.845.657-3.738,1.181-5.66,1.563-.481.096-.965.183-1.449.26-.35.056-1.32.4-.13.027-.872.273-2.029.204-2.939.244-1.972.087-3.943.009-5.903-.213l4.317,7.524c.38-.761.799-1.495,1.277-2.199.106-.157.801-1.054.423-.601-.395.472.042-.037.104-.108.175-.198.345-.4.522-.597,1.175-1.3,2.488-2.459,3.85-3.557.744-.6-.484.346.291-.219.389-.283.775-.568,1.168-.847.728-.516,1.465-1.019,2.207-1.515,1.542-1.031,3.099-2.039,4.668-3.028,6.413-4.042,13.056-7.679,20.009-10.706-.79.344.119-.048.417-.17.471-.193.944-.382,1.418-.567.879-.344,1.763-.676,2.652-.995,1.773-.635,3.565-1.218,5.375-1.74s3.627-.98,5.464-1.371c.918-.195,1.839-.373,2.763-.534.427-.074.854-.144,1.282-.21.348-.054,1.601-.205.601-.093,3.731-.418,7.474-.654,11.228-.439.35.02.699.054,1.049.08.923.069-1.028-.189.256.032.749.129,1.493.299,2.216.537.162.053.321.12.483.171.545.172-.443-.154-.419-.178.063-.064.946.535.999.557.5.204-.426-.22-.369-.31,0,0,.327.297.35.317.025.022.322.342.326.34.031-.019-.727-.876-.223-.25.449.557-.148-.622.091.212.029.101.187.772.058.123-.135-.678-.007.155-.003.339.009.408-.008.814-.038,1.221-.023.31-.192,1.489-.048.595-.319,1.975-.725,3.924-1.264,5.851s-1.187,3.841-1.895,5.721c-.356.946-.73,1.886-1.114,2.821-.089.216-.179.432-.268.648.036-.087.279-.648.049-.117-.217.501-.431,1.003-.65,1.504-3.424,7.825-7.013,15.581-10.528,23.366-7.115,15.761-14.23,31.522-21.345,47.283s-14.23,31.522-21.345,47.283c-.889,1.97-1.779,3.94-2.668,5.91-1.074,2.378-.764,5.49,1.794,6.841,2.187,1.156,5.692.751,6.841-1.794,7.423-16.443,14.846-32.886,22.269-49.329,7.457-16.519,14.914-33.038,22.371-49.556,3.69-8.173,7.446-16.32,11.058-24.528,1.798-4.087,3.546-8.22,4.818-12.505s2.443-9.08,1.709-13.548c-.741-4.508-4.556-7.487-8.711-8.733-3.708-1.111-7.834-1.088-11.668-.922-8.18.352-16.279,2.119-23.963,4.911s-15.008,6.426-22.025,10.577c-3.387,2.003-6.719,4.11-9.972,6.325s-6.512,4.584-9.08,7.572c-1.344,1.564-2.574,3.234-3.497,5.081-.813,1.629-.949,3.426,0,5.047.967,1.652,2.508,2.272,4.317,2.476,13.183,1.491,27.346-3.803,36.359-13.54,2.532-2.735,4.737-5.831,6.316-9.212,1.105-2.365.743-5.501-1.794-6.841-2.213-1.169-5.659-.736-6.841,1.794h0Z"/>
  <path class="cls-1" d="M165.506,18.316c-17.165,1.316-32.433,9.442-45.926,19.701-6.551,4.98-12.743,10.379-19.036,15.673-1.555,1.308-3.118,2.607-4.695,3.889-.737.599-1.478,1.195-2.222,1.786-.372.296-.746.59-1.12.883-.214.167-.429.334-.643.501.342-.267.455-.349.044-.035-3.182,2.43-6.434,4.767-9.811,6.92-3.77,2.404-7.689,4.581-11.772,6.407-.248.111-.499.216-.746.329-.675.309.756-.305.067-.025-.568.231-1.136.464-1.708.685-1.022.395-2.052.766-3.091,1.112-2.238.746-4.513,1.369-6.816,1.88-2.556.567-4.295,3.671-3.492,6.151.869,2.684,3.412,4.1,6.151,3.492,16.356-3.63,30.259-13.211,43.019-23.657,6.119-5.009,12.013-10.287,18.193-15.222.751-.6,1.507-1.192,2.265-1.783.587-.458-.626.473-.031.026.165-.124.328-.251.492-.376.439-.334.879-.665,1.321-.995,1.66-1.237,3.344-2.444,5.055-3.61,3.304-2.253,6.713-4.358,10.247-6.233,2.005-1.064,4.054-2.026,6.128-2.948.524-.233-.192.081-.246.103.318-.128.635-.261.954-.388.51-.203,1.022-.401,1.537-.593,1.094-.408,2.198-.789,3.312-1.141,2.106-.665,4.245-1.226,6.409-1.669,1.162-.238,2.329-.426,3.501-.608.585-.091-.231.033-.287.039.35-.037.699-.084,1.049-.121.633-.067,1.267-.122,1.902-.171,2.602-.2,5.127-2.157,5-5-.114-2.538-2.207-5.214-5-5h0Z"/>
  <path class="cls-1" d="M54.359,82.842c.616,5.175,3.177,10.109,5.348,14.776,2.818,6.057,5.904,12.01,9.316,17.754s7.304,11.057,12.35,15.481c6.228,5.46,13.319,9.874,20.659,13.671,8.465,4.378,17.315,8.018,26.253,11.307,2.459.905,5.585-1.011,6.151-3.492.644-2.828-.86-5.182-3.492-6.151-3.622-1.333-7.222-2.726-10.785-4.209-.387-.161-1.365-.519-.436-.182-.491-.178-.973-.416-1.453-.624-.973-.422-1.942-.85-2.908-1.287-1.822-.823-3.632-1.674-5.425-2.557-3.619-1.781-7.176-3.69-10.625-5.782-1.648-1-3.272-2.041-4.861-3.133-.777-.534-1.546-1.08-2.305-1.639-.35-.258-.695-.521-1.042-.781-.565-.422.682.545.136.104-.238-.192-.48-.379-.717-.571-2.722-2.196-5.293-4.597-7.549-7.274-.176-.208-.791-.763-.839-1.029-.009-.051.563.754.313.406-.086-.119-.177-.235-.264-.353-.376-.507-.74-1.022-1.098-1.543-.762-1.11-1.491-2.243-2.2-3.387-3.416-5.515-6.455-11.276-9.278-17.115-.749-1.549-1.48-3.107-2.185-4.677-.323-.719-.641-1.44-.952-2.164-.07-.162-.136-.326-.208-.487.047.106.46,1.104.204.481-.14-.343-.282-.685-.421-1.028-.445-1.107-.873-2.224-1.242-3.359-.141-.434-.275-.87-.389-1.312-.149-.581-.319-2.073-.054.156-.308-2.588-2.079-5.131-5-5-2.444.109-5.331,2.218-5,5h0Z"/>
  <path class="cls-1" d="M193.485,130.724c-1.048.994-2.12,1.961-3.223,2.894-.503.425-1.011.844-1.524,1.256-.206.165-.413.328-.62.492-.44.343-.416.325.072-.055-.21.16-.421.319-.633.477-2.236,1.665-4.561,3.209-6.959,4.631-2.418,1.433-4.909,2.741-7.459,3.923-.671.311-1.351.602-2.025.906-.743.335,1.108-.446-.108.046-.375.152-.749.306-1.125.455-1.381.547-2.776,1.059-4.183,1.534-2.697.911-5.438,1.69-8.211,2.334-1.324.307-2.655.584-3.992.829-.736.135-1.474.26-2.213.376-.336.053-.673.1-1.009.153-1.188.184.804-.089-.29.04-2.98.351-5.965.594-8.967.652-1.364.026-2.728.02-4.092-.02-.682-.02-1.364-.048-2.045-.085-.354-.019-.708-.051-1.062-.069-.984-.049,1.039.303.032-.001-.405-.122-1.134-.515-.014.105-.336-.186-.512-.429.22.265-.762-.723.431.98-.047-.064.165.36.18.527.287.88l-.103.482c.167-.566.131-.557-.108.028.022-.046.55-1.143.193-.438-.317.625.214-.226.328-.34.178-.177.362-.345.554-.507-.468.347-.553.414-.257.201,2.514-1.588,5.17-2.906,7.909-4.066-.893.378-.188.081-.006.01.4-.156.797-.319,1.197-.474.668-.258,1.34-.507,2.014-.746,1.488-.528,2.993-1.011,4.509-1.452,2.982-.866,6.012-1.564,9.068-2.11.786-.14,1.573-.271,2.362-.391.287-.044.575-.085.862-.128,1.442-.214-1.048.12.4-.053,1.592-.19,3.185-.359,4.784-.482,3.059-.235,6.128-.335,9.195-.31,3.137.025,6.273.182,9.398.462,1.61.144,3.215.324,4.818.524,1.002.125.273.036.065.007.464.065.928.131,1.392.2.926.138,1.851.285,2.775.441,14.756,2.497,29.007,7.278,42.889,12.774,2.438.965,5.595-1.055,6.151-3.492.656-2.881-.882-5.117-3.492-6.151-26.521-10.498-54.975-18.071-83.616-13.156-6.768,1.161-13.302,3.121-19.617,5.81-6.36,2.707-15.913,7.288-13.262,15.935,1.37,4.467,5.524,6.015,9.773,6.282,3.129.197,6.276.191,9.406.024,6.546-.351,13.1-1.379,19.427-3.098,13.838-3.76,26.827-10.789,37.252-20.669,1.903-1.803,1.953-5.278,0-7.071-2.04-1.873-5.041-1.924-7.071,0h0Z"/>
  <g>
    <path class="cls-1" d="M235.547,148.733c-16.544,26.649-32.666,53.559-48.347,80.725-4.404,7.629-8.773,15.279-13.109,22.947-1.288,2.277-.617,5.567,1.794,6.841,2.368,1.251,5.466.638,6.841-1.794,15.427-27.288,31.29-54.329,47.585-81.107,4.59-7.542,9.214-15.064,13.871-22.565,1.381-2.225.55-5.603-1.794-6.841-2.45-1.294-5.366-.581-6.841,1.794h0Z"/>
    <path class="cls-1" d="M174.091,252.405c-.734,1.317-1.531,2.597-2.396,3.832-.195.279-.394.555-.596.83-.101.138-.204.274-.306.412-.528.712.061-.122.153-.196-.583.471-1.053,1.297-1.551,1.865-1.005,1.148-2.066,2.248-3.174,3.297-.562.532-1.137,1.051-1.722,1.557-.318.274-.638.544-.962.81-.166.136-1.14.915-.625.509.533-.42-.361.268-.507.375-.342.252-.687.499-1.036.743-.7.489-1.413.961-2.137,1.414-1.357.849-2.754,1.636-4.185,2.354-.721.362-1.452.707-2.19,1.034-.09.04-.422.245-.514.225.305.068.784-.317.158-.072-.408.16-.815.322-1.225.475-1.594.594-3.218,1.105-4.866,1.527-.8.205-1.606.389-2.416.552-.376.076-.752.147-1.129.213-.189.033-.378.066-.568.097-.154.025-1.246.202-.478.081.687-.108-.488.056-.677.076-.45.048-.901.091-1.352.126-.844.065-1.69.107-2.537.125-1.787.038-3.576-.03-5.355-.205-.379-.037-.84-.023-1.203-.135,1.121.345-.149-.031-.483-.087-.95-.159-1.895-.348-2.833-.567-.058-.014-.578-.177-.609-.146.087-.09.58.294.644.319.439.168.065.057-.101-.093-.183-.165-.369-.326-.545-.498-.149-.146-.532-.728-.717-.77.087.02.479.799.275.351-.104-.229-.306-.457-.431-.676-.07-.122-.129-.307-.219-.413-.304-.356.221.392.194.498.042-.165-.228-.67-.276-.851-.012-.045-.072-.511-.129-.574.016.018.07,1.108.079.604.006-.34-.044-.682-.035-1.024.003-.122.072-.51.034-.588.007.014-.214,1.093-.082.592.076-.29.114-.593.188-.885.089-.349.212-.685.315-1.029.092-.307.301-.351-.024.013-.405.454-.059.123.068-.129.32-.634.655-1.254,1.042-1.85.183-.282.378-.554.571-.829.308-.439.361-.107-.16.202.159-.094.317-.385.44-.528.491-.57,1.012-1.115,1.557-1.635.253-.241.511-.477.774-.708.252-.221,1.116-.863.383-.342,1.532-1.089,3.113-2.062,4.815-2.866.318-.15,1.434-.611.511-.245.386-.153.771-.306,1.16-.45.911-.337,1.835-.639,2.767-.914,1.813-.535,3.656-.966,5.508-1.34s3.698-.701,5.559-.978c.56-.084,1.12-.163,1.681-.244.04-.006.833-.116.296-.043s.256-.034.297-.039c1.121-.145,2.243-.283,3.366-.41,4.326-.491,8.667-.845,13.014-1.084,17.307-.952,34.65-.091,51.92,1.134s34.566,2.831,51.897,3.421c2.19.075,4.381.131,6.572.172,2.616.048,5.119-2.334,5-5-.123-2.75-2.196-4.948-5-5-18.394-.34-36.722-1.999-55.06-3.347-18.321-1.346-36.721-2.387-55.087-1.394-9.133.494-18.351,1.374-27.319,3.21-7.934,1.624-16.096,4.647-21.567,10.899-2.401,2.743-4.552,6.064-5.151,9.726-.71,4.337.327,8.297,3.187,11.663,1.627,1.915,3.695,3.305,6.146,3.852,2.163.484,4.368.805,6.572,1.032,4.058.417,8.085.203,12.116-.368,14.573-2.065,27.97-10.68,36.417-22.646.902-1.278,1.731-2.604,2.493-3.971,1.274-2.284.626-5.562-1.794-6.841-2.356-1.245-5.48-.646-6.841,1.794h0Z"/>
  </g>
</svg>